<svg xmlns="http://www.w3.org/2000/svg" viewBox="0 0 128 128" role="img" aria-label="Wayback Linker">
  <defs>
    <linearGradient id="tile" x1="0" y1="0" x2="0" y2="1"><stop offset="0" stop-color="#13191c"/><stop offset="1" stop-color="#182024"/></linearGradient>
    <clipPath id="sq"><rect x="6" y="6" width="116" height="116" rx="22"/></clipPath>
  </defs>
  <g clip-path="url(#sq)"><rect x="6" y="6" width="116" height="116" fill="url(#tile)"/><circle cx="60" cy="56" r="26" fill="none" stroke="#b4c3bd" stroke-width="2.6"/><line x1="60" y1="56" x2="48.29" y2="49.24" stroke="#63f2ab" stroke-width="3" stroke-linecap="round"/>
<line x1="60" y1="56" x2="76.66" y2="46.38" stroke="#b4c3bd" stroke-width="2.4" stroke-linecap="round"/>
<circle cx="60" cy="56" r="2.25" fill="#b4c3bd"/><path d="M90.53,75.08 A36,36 0 1 0 29.47,75.08" fill="none" stroke="#63f2ab" stroke-width="3.4" stroke-linecap="round"/>
<path d="M34.15,82.57 L24.64,77.29 L33.58,71.71 Z" fill="#63f2ab"/><g transform="rotate(-45 94 84)" stroke="#6bdcff" stroke-width="3.4" fill="none">
<rect x="69.56" y="78" width="26" height="12" rx="6"/>
<rect x="92.44" y="78" width="26" height="12" rx="6"/>
</g><line x1="18" y1="108" x2="110" y2="108" stroke="#39484f" stroke-width="1.4"/><line x1="88" y1="102" x2="88" y2="114" stroke="#63f2ab" stroke-width="2.4"/><line x1="40" y1="104" x2="40" y2="112" stroke="#63736f" stroke-width="1.4"/><line x1="64" y1="104" x2="64" y2="112" stroke="#63736f" stroke-width="1.4"/></g>
  <rect x="6" y="6" width="116" height="116" rx="22" fill="none" stroke="#2a363d" stroke-width="1"/>
</svg>
