<svg xmlns="http://www.w3.org/2000/svg" viewBox="0 0 1280 640" role="img" aria-label="Wayback Linker">
  <defs><linearGradient id="tile" x1="0" y1="0" x2="0" y2="1"><stop offset="0" stop-color="#13191c"/><stop offset="1" stop-color="#182024"/></linearGradient><clipPath id="pane"><rect x="56" y="56" width="424" height="528" rx="12"/></clipPath></defs>
  <rect width="1280" height="640" fill="#090c0d"/>
  <rect x="16" y="16" width="1248" height="608" rx="16" fill="#0e1214" stroke="#2a363d" stroke-width="2"/>
  <g clip-path="url(#pane)"><rect x="56" y="56" width="424" height="528" fill="url(#tile)"/><g stroke="#63736f" stroke-width="3.8" stroke-linecap="round"><line x1="360.8" y1="268" x2="346.8" y2="268"/><line x1="347.56" y1="218.6" x2="335.44" y2="225.6"/><line x1="311.4" y1="182.44" x2="304.4" y2="194.56"/><line x1="262" y1="169.2" x2="262" y2="183.2"/><line x1="212.6" y1="182.44" x2="219.6" y2="194.56"/><line x1="176.44" y1="218.6" x2="188.56" y2="225.6"/><line x1="163.2" y1="268" x2="177.2" y2="268"/><line x1="176.44" y1="317.4" x2="188.56" y2="310.4"/><line x1="212.6" y1="353.56" x2="219.6" y2="341.44"/><line x1="262" y1="366.8" x2="262" y2="352.8"/><line x1="311.4" y1="353.56" x2="304.4" y2="341.44"/><line x1="347.56" y1="317.4" x2="335.44" y2="310.4"/></g><circle cx="262" cy="268" r="110" fill="none" stroke="#b4c3bd" stroke-width="7"/><line x1="262" y1="268" x2="212.46" y2="239.4" stroke="#63f2ab" stroke-width="8.5" stroke-linecap="round"/>
<line x1="262" y1="268" x2="332.49" y2="227.3" stroke="#b4c3bd" stroke-width="6.800000000000001" stroke-linecap="round"/>
<circle cx="262" cy="268" r="6.375" fill="#b4c3bd"/><path d="M389.21,347.49 A150,150 0 1 0 134.79,347.49" fill="none" stroke="#63f2ab" stroke-width="9" stroke-linecap="round"/>
<path d="M147.19,367.33 L122.01,353.35 L145.67,338.57 Z" fill="#63f2ab"/><g transform="rotate(-45 410 372)" stroke="#6bdcff" stroke-width="10.5" fill="none">
<rect x="329.16" y="353" width="86" height="38" rx="19"/>
<rect x="404.84" y="353" width="86" height="38" rx="19"/>
</g><line x1="88" y1="512" x2="448" y2="512" stroke="#39484f" stroke-width="3"/><line x1="116" y1="503" x2="116" y2="521" stroke="#63736f" stroke-width="3"/><line x1="168" y1="503" x2="168" y2="521" stroke="#63736f" stroke-width="3"/><line x1="220" y1="503" x2="220" y2="521" stroke="#63736f" stroke-width="3"/><line x1="272" y1="503" x2="272" y2="521" stroke="#63736f" stroke-width="3"/><line x1="324" y1="503" x2="324" y2="521" stroke="#63736f" stroke-width="3"/><line x1="428" y1="503" x2="428" y2="521" stroke="#63736f" stroke-width="3"/><line x1="376" y1="497" x2="376" y2="527" stroke="#63f2ab" stroke-width="4.800000000000001"/><circle cx="376" cy="489.5" r="6.6000000000000005" fill="#63f2ab"/><circle cx="128" cy="120" r="4" fill="#63736f"/><circle cx="430" cy="140" r="3.6" fill="#6bdcff"/><circle cx="180" cy="172" r="3" fill="#63736f"/></g>
  <rect x="56" y="56" width="424" height="528" rx="12" fill="none" stroke="#39484f" stroke-width="2"/>
  <text x="544" y="216" font-family="'Berkeley Mono','JetBrains Mono','Cascadia Code',Consolas,ui-monospace,monospace" font-size="19" font-weight="700" letter-spacing="4" fill="#879994">OBSIDIAN PLUGIN &#183; WAYBACK MACHINE</text>
  <g transform="translate(540,312)"><path fill="#dce4df" d="M42.73-51.05L39.84 0L28.55 0L23.52-15.74L21.68-22.15L19.92-15.59L14.96 0L4.14 0L1.29-51.05L9.77-51.05L10.98-18.32L11.29-9.37L13.59-17.34L19.22-35.51L25.27-35.51L31.21-16.25L33.13-9.45L33.28-17.42L34.57-51.05L42.73-51.05M82.46 0L74.30 0L74.06-5.20Q72.81-3.87 71.45-2.75Q70.08-1.64 68.44-0.82Q66.80 0 64.86 0.45Q62.93 0.90 60.63 0.90Q57.58 0.90 55.27 0Q52.97-0.90 51.41-2.50Q49.84-4.10 49.04-6.37Q48.24-8.63 48.24-11.37Q48.24-14.18 49.43-16.56Q50.63-18.95 53.07-20.66Q55.51-22.38 59.16-23.36Q62.81-24.34 67.73-24.34L72.93-24.34L72.93-26.72Q72.93-28.24 72.50-29.47Q72.07-30.70 71.11-31.56Q70.16-32.42 68.63-32.89Q67.11-33.36 64.88-33.36Q61.37-33.36 57.95-32.56Q54.53-31.76 51.33-30.31L51.33-37.93Q54.18-39.06 57.91-39.80Q61.64-40.55 65.66-40.55Q70.08-40.55 73.24-39.71Q76.41-38.87 78.46-37.19Q80.51-35.51 81.48-32.99Q82.46-30.47 82.46-27.11L82.46 0M72.93-12.23L72.93-17.54L67.11-17.54Q64.69-17.54 63.01-17.07Q61.33-16.60 60.27-15.78Q59.22-14.96 58.73-13.89Q58.24-12.81 58.24-11.60Q58.24-9.18 59.80-7.91Q61.37-6.64 64.06-6.64Q66.05-6.64 68.20-8.09Q70.35-9.53 72.93-12.23M131.17-39.69L117.27-4.34Q115.20 0.82 112.95 4.71Q110.70 8.59 108.01 11.19Q105.31 13.79 102.01 15.10Q98.71 16.41 94.61 16.41Q93.63 16.41 92.48 16.31Q91.33 16.21 90.12 16.02L90.12 7.93Q90.59 8.01 91.19 8.11Q91.80 8.20 92.46 8.26Q93.13 8.32 93.81 8.36Q94.49 8.40 95.08 8.40Q96.72 8.40 98.13 7.77Q99.53 7.15 100.72 6.04Q101.91 4.92 102.89 3.38Q103.87 1.84 104.61 0L88.87-39.69L99.49-39.69L107.73-17.19L110.20-9.92L112.62-16.87L120.94-39.69L131.17-39.69M173.09-20.55Q173.09-15.08 171.54-11.09Q170-7.11 167.25-4.47Q164.49-1.84 160.74-0.57Q156.99 0.70 152.58 0.70Q148.24 0.70 144.51 0.06Q140.78-0.59 137.38-1.68L137.38-55.20L146.91-55.20L146.91-42.23L146.52-34.41Q148.67-37.19 151.54-38.87Q154.41-40.55 158.44-40.55Q161.95-40.55 164.69-39.14Q167.42-37.73 169.28-35.14Q171.13-32.54 172.11-28.85Q173.09-25.16 173.09-20.55M163.09-20.16Q163.09-23.44 162.62-25.74Q162.15-28.05 161.27-29.53Q160.39-31.02 159.12-31.70Q157.85-32.38 156.21-32.38Q153.79-32.38 151.58-30.43Q149.38-28.48 146.91-25.12L146.91-7.77Q148.05-7.34 149.71-7.07Q151.37-6.80 153.09-6.80Q155.35-6.80 157.21-7.73Q159.06-8.67 160.37-10.39Q161.68-12.11 162.38-14.59Q163.09-17.07 163.09-20.16M214.41 0L206.25 0L206.02-5.20Q204.77-3.87 203.40-2.75Q202.03-1.64 200.39-0.82Q198.75 0 196.82 0.45Q194.88 0.90 192.58 0.90Q189.53 0.90 187.23 0Q184.92-0.90 183.36-2.50Q181.80-4.10 181-6.37Q180.20-8.63 180.20-11.37Q180.20-14.18 181.39-16.56Q182.58-18.95 185.02-20.66Q187.46-22.38 191.11-23.36Q194.77-24.34 199.69-24.34L204.88-24.34L204.88-26.72Q204.88-28.24 204.45-29.47Q204.02-30.70 203.07-31.56Q202.11-32.42 200.59-32.89Q199.06-33.36 196.84-33.36Q193.32-33.36 189.90-32.56Q186.48-31.76 183.28-30.31L183.28-37.93Q186.13-39.06 189.86-39.80Q193.59-40.55 197.62-40.55Q202.03-40.55 205.20-39.71Q208.36-38.87 210.41-37.19Q212.46-35.51 213.44-32.99Q214.41-30.47 214.41-27.11L214.41 0M204.88-12.23L204.88-17.54L199.06-17.54Q196.64-17.54 194.96-17.07Q193.28-16.60 192.23-15.78Q191.17-14.96 190.68-13.89Q190.20-12.81 190.20-11.60Q190.20-9.18 191.76-7.91Q193.32-6.64 196.02-6.64Q198.01-6.64 200.16-8.09Q202.30-9.53 204.88-12.23M257.46-10L257.46-1.52Q254.65-0.39 251.64 0.16Q248.63 0.70 245.35 0.70Q240.63 0.70 236.88-0.59Q233.13-1.87 230.51-4.41Q227.89-6.95 226.50-10.70Q225.12-14.45 225.12-19.37Q225.12-24.14 226.62-28.01Q228.13-31.87 230.86-34.61Q233.59-37.34 237.44-38.83Q241.29-40.31 246.02-40.31Q249.88-40.31 252.52-39.90Q255.16-39.49 257.27-38.87L257.27-29.61Q254.84-30.82 252.01-31.48Q249.18-32.15 246.64-32.15Q243.98-32.15 241.88-31.25Q239.77-30.35 238.32-28.75Q236.88-27.15 236.11-24.86Q235.35-22.58 235.35-19.84Q235.35-16.99 236.17-14.73Q236.99-12.46 238.50-10.88Q240-9.30 242.11-8.46Q244.22-7.62 246.80-7.62Q248.05-7.62 249.43-7.79Q250.82-7.97 252.21-8.30Q253.59-8.63 254.94-9.06Q256.29-9.49 257.46-10M306.37 0L293.91 0L279.26-19.84L279.26 0L269.73 0L269.73-55.20L279.26-55.20L279.26-22.89L293.13-39.69L305.04-39.69L288.95-21.60L306.37 0M390.90 0L359.57 0L359.57-51.05L369.34-51.05L369.34-8.24L390.90-8.24L390.90 0M424.65-50.55Q424.65-49.26 424.18-48.12Q423.71-46.99 422.87-46.15Q422.03-45.31 420.90-44.82Q419.77-44.34 418.44-44.34Q417.11-44.34 415.96-44.82Q414.80-45.31 413.96-46.15Q413.13-46.99 412.66-48.12Q412.19-49.26 412.19-50.55Q412.19-51.84 412.66-52.97Q413.13-54.10 413.96-54.96Q414.80-55.82 415.96-56.31Q417.11-56.80 418.44-56.80Q419.77-56.80 420.90-56.31Q422.03-55.82 422.87-54.96Q423.71-54.10 424.18-52.97Q424.65-51.84 424.65-50.55M414.10-7.42L414.10-32.27L402.89-32.27L402.89-39.69L423.87-39.69L423.87-7.42L435.31-7.42L435.31 0L401.52 0L401.52-7.42L414.10-7.42M478.48 0L468.95 0L468.95-25.86Q468.95-32.38 464.10-32.38Q461.68-32.38 459.47-30.43Q457.27-28.48 454.80-25.12L454.80 0L445.27 0L445.27-39.69L453.52-39.69L453.75-33.83Q454.96-35.35 456.27-36.60Q457.58-37.85 459.10-38.73Q460.63-39.61 462.38-40.08Q464.14-40.55 466.33-40.55Q469.38-40.55 471.64-39.55Q473.91-38.55 475.43-36.74Q476.95-34.92 477.71-32.36Q478.48-29.80 478.48-26.64L478.48 0M526.29 0L513.83 0L499.18-19.84L499.18 0L489.65 0L489.65-55.20L499.18-55.20L499.18-22.89L513.05-39.69L524.96-39.69L508.87-21.60L526.29 0M567.81-22.89Q567.81-21.91 567.75-20.35Q567.70-18.79 567.58-17.42L541.48-17.42Q541.48-14.80 542.29-12.81Q543.09-10.82 544.55-9.47Q546.02-8.12 548.07-7.42Q550.12-6.72 552.62-6.72Q555.51-6.72 558.81-7.17Q562.11-7.62 565.66-8.63L565.66-1.05Q564.14-0.62 562.34-0.27Q560.55 0.08 558.67 0.35Q556.80 0.63 554.88 0.76Q552.97 0.90 551.17 0.90Q546.64 0.90 543.05-0.39Q539.45-1.68 536.95-4.20Q534.45-6.72 533.13-10.43Q531.80-14.14 531.80-19.02Q531.80-23.87 533.13-27.83Q534.45-31.80 536.88-34.63Q539.30-37.46 542.75-39Q546.21-40.55 550.47-40.55Q554.69-40.55 557.93-39.24Q561.17-37.93 563.36-35.59Q565.55-33.24 566.68-30Q567.81-26.76 567.81-22.89M541.64-24.26L558.13-24.26Q558.16-26.60 557.54-28.34Q556.91-30.08 555.84-31.21Q554.77-32.34 553.34-32.89Q551.91-33.44 550.27-33.44Q546.68-33.44 544.38-31.04Q542.07-28.63 541.64-24.26M612.34-24.26L602.77-24.26Q602.85-26.48 602.56-28.05Q602.27-29.61 601.62-30.62Q600.98-31.64 600.04-32.11Q599.10-32.58 597.89-32.58Q595.78-32.58 593.54-30.84Q591.29-29.10 588.59-25.12L588.59 0L578.83 0L578.83-39.69L587.46-39.69L587.81-33.91Q588.79-35.43 590.02-36.64Q591.25-37.85 592.75-38.73Q594.26-39.61 596.09-40.08Q597.93-40.55 600.12-40.55Q603.13-40.55 605.45-39.51Q607.77-38.48 609.36-36.45Q610.94-34.41 611.70-31.35Q612.46-28.28 612.34-24.26"/></g>
  <text x="544" y="374" font-family="'Berkeley Mono','JetBrains Mono','Cascadia Code',Consolas,ui-monospace,monospace" font-size="25" letter-spacing="0.5" fill="#879994">Archive every external link before it rots.</text>
  <text x="544" y="452" font-family="'Berkeley Mono','JetBrains Mono','Cascadia Code',Consolas,ui-monospace,monospace" font-size="16" letter-spacing="2" fill="#63736f">SAVE PAGE NOW &#183; VAULT-WIDE SCAN &#183; MIT</text>
</svg>
