<svg xmlns="http://www.w3.org/2000/svg" viewBox="0 0 720 200" role="img" aria-label="Wayback Linker">
  <defs><linearGradient id="tile" x1="0" y1="0" x2="0" y2="1"><stop offset="0" stop-color="#13191c"/><stop offset="1" stop-color="#182024"/></linearGradient><clipPath id="pane"><rect x="22" y="24" width="204" height="152" rx="6"/></clipPath></defs>
  <rect x="2" y="2" width="716" height="196" rx="8" fill="#0e1214" stroke="#2a363d"/>
  <g clip-path="url(#pane)"><rect x="22" y="24" width="204" height="152" fill="url(#tile)"/><g stroke="#63736f" stroke-width="1.3" stroke-linecap="round"><line x1="146.16" y1="90" x2="141.16" y2="90"/><line x1="141.58" y1="72.92" x2="137.25" y2="75.42"/><line x1="129.08" y1="60.42" x2="126.58" y2="64.75"/><line x1="112" y1="55.84" x2="112" y2="60.84"/><line x1="94.92" y1="60.42" x2="97.42" y2="64.75"/><line x1="82.42" y1="72.92" x2="86.75" y2="75.42"/><line x1="77.84" y1="90" x2="82.84" y2="90"/><line x1="82.42" y1="107.08" x2="86.75" y2="104.58"/><line x1="94.92" y1="119.58" x2="97.42" y2="115.25"/><line x1="112" y1="124.16" x2="112" y2="119.16"/><line x1="129.08" y1="119.58" x2="126.58" y2="115.25"/><line x1="141.58" y1="107.08" x2="137.25" y2="104.58"/></g><circle cx="112" cy="90" r="38" fill="none" stroke="#b4c3bd" stroke-width="2.4"/><line x1="112" y1="90" x2="94.89" y2="80.12" stroke="#63f2ab" stroke-width="3" stroke-linecap="round"/>
<line x1="112" y1="90" x2="136.35" y2="75.94" stroke="#b4c3bd" stroke-width="2.4000000000000004" stroke-linecap="round"/>
<circle cx="112" cy="90" r="2.25" fill="#b4c3bd"/><path d="M156.1,117.56 A52,52 0 1 0 67.9,117.56" fill="none" stroke="#63f2ab" stroke-width="3.2" stroke-linecap="round"/>
<path d="M72.31,124.61 L63.36,119.64 L71.77,114.38 Z" fill="#63f2ab"/><g transform="rotate(-45 163 123)" stroke="#6bdcff" stroke-width="3.6" fill="none">
<rect x="134.8" y="116.5" width="30" height="13" rx="6.5"/>
<rect x="161.2" y="116.5" width="30" height="13" rx="6.5"/>
</g><line x1="34" y1="160" x2="214" y2="160" stroke="#39484f" stroke-width="1.1"/><line x1="46" y1="156.7" x2="46" y2="163.3" stroke="#63736f" stroke-width="1.1"/><line x1="72" y1="156.7" x2="72" y2="163.3" stroke="#63736f" stroke-width="1.1"/><line x1="98" y1="156.7" x2="98" y2="163.3" stroke="#63736f" stroke-width="1.1"/><line x1="124" y1="156.7" x2="124" y2="163.3" stroke="#63736f" stroke-width="1.1"/><line x1="150" y1="156.7" x2="150" y2="163.3" stroke="#63736f" stroke-width="1.1"/><line x1="202" y1="156.7" x2="202" y2="163.3" stroke="#63736f" stroke-width="1.1"/><line x1="176" y1="154.5" x2="176" y2="165.5" stroke="#63f2ab" stroke-width="1.7600000000000002"/><circle cx="176" cy="151.75" r="2.4200000000000004" fill="#63f2ab"/><circle cx="52" cy="42" r="1.4" fill="#63736f"/><circle cx="196" cy="50" r="1.3" fill="#6bdcff"/><circle cx="70" cy="58" r="1.1" fill="#63736f"/></g>
  <rect x="22" y="24" width="204" height="152" rx="6" fill="none" stroke="#39484f" stroke-width="1"/>
  <text x="256" y="66" font-family="'Berkeley Mono','JetBrains Mono','Cascadia Code',Consolas,ui-monospace,monospace" font-size="11" font-weight="700" letter-spacing="2.2" fill="#879994">OBSIDIAN PLUGIN &#183; WAYBACK MACHINE</text>
  <g transform="translate(254,120)"><path fill="#dce4df" d="M24.57-29.36L22.91 0L16.42 0L13.52-9.05L12.47-12.74L11.46-8.96L8.60 0L2.38 0L0.74-29.36L5.62-29.36L6.31-10.53L6.49-5.39L7.82-9.97L11.05-20.42L14.53-20.42L17.95-9.34L19.05-5.44L19.14-10.02L19.88-29.36L24.57-29.36M47.42 0L42.72 0L42.59-2.99Q41.87-2.22 41.08-1.58Q40.29-0.94 39.35-0.47Q38.41 0 37.30 0.26Q36.18 0.52 34.86 0.52Q33.11 0.52 31.78 0Q30.46-0.52 29.56-1.44Q28.66-2.36 28.20-3.66Q27.74-4.96 27.74-6.54Q27.74-8.15 28.42-9.52Q29.11-10.89 30.51-11.88Q31.92-12.87 34.02-13.43Q36.12-13.99 38.95-13.99L41.93-13.99L41.93-15.36Q41.93-16.24 41.69-16.95Q41.44-17.65 40.89-18.15Q40.34-18.64 39.46-18.91Q38.59-19.18 37.31-19.18Q35.29-19.18 33.32-18.72Q31.36-18.26 29.51-17.43L29.51-21.81Q31.15-22.46 33.30-22.89Q35.44-23.31 37.76-23.31Q40.29-23.31 42.11-22.83Q43.93-22.35 45.11-21.38Q46.29-20.42 46.85-18.97Q47.42-17.52 47.42-15.59L47.42 0M41.93-7.03L41.93-10.08L38.59-10.08Q37.20-10.08 36.23-9.82Q35.26-9.55 34.66-9.07Q34.05-8.60 33.77-7.98Q33.49-7.37 33.49-6.67Q33.49-5.28 34.39-4.55Q35.29-3.82 36.84-3.82Q37.98-3.82 39.22-4.65Q40.45-5.48 41.93-7.03M75.42-22.82L67.43-2.49Q66.24 0.47 64.95 2.71Q63.65 4.94 62.10 6.44Q60.55 7.93 58.66 8.68Q56.76 9.43 54.40 9.43Q53.84 9.43 53.18 9.38Q52.51 9.32 51.82 9.21L51.82 4.56Q52.09 4.60 52.44 4.66Q52.78 4.72 53.17 4.75Q53.55 4.78 53.94 4.81Q54.33 4.83 54.67 4.83Q55.61 4.83 56.42 4.47Q57.23 4.11 57.92 3.47Q58.60 2.83 59.16 1.94Q59.72 1.06 60.15 0L51.10-22.82L57.21-22.82L61.95-9.88L63.36-5.71L64.75-9.70L69.54-22.82L75.42-22.82M99.52-11.81Q99.52-8.67 98.64-6.38Q97.75-4.09 96.17-2.57Q94.58-1.06 92.43-0.33Q90.27 0.40 87.73 0.40Q85.24 0.40 83.09 0.03Q80.95-0.34 79-0.97L79-31.74L84.48-31.74L84.48-24.28L84.25-19.79Q85.49-21.38 87.14-22.35Q88.79-23.31 91.10-23.31Q93.12-23.31 94.70-22.51Q96.27-21.70 97.33-20.20Q98.40-18.71 98.96-16.59Q99.52-14.46 99.52-11.81M93.77-11.59Q93.77-13.48 93.50-14.80Q93.24-16.13 92.73-16.98Q92.22-17.83 91.49-18.23Q90.76-18.62 89.82-18.62Q88.43-18.62 87.16-17.50Q85.89-16.37 84.48-14.44L84.48-4.47Q85.13-4.22 86.08-4.07Q87.04-3.91 88.02-3.91Q89.33-3.91 90.39-4.45Q91.46-4.99 92.21-5.97Q92.97-6.96 93.37-8.39Q93.77-9.82 93.77-11.59M123.29 0L118.59 0L118.46-2.99Q117.74-2.22 116.95-1.58Q116.17-0.94 115.22-0.47Q114.28 0 113.17 0.26Q112.06 0.52 110.73 0.52Q108.98 0.52 107.66 0Q106.33-0.52 105.43-1.44Q104.53-2.36 104.07-3.66Q103.61-4.96 103.61-6.54Q103.61-8.15 104.30-9.52Q104.98-10.89 106.39-11.88Q107.79-12.87 109.89-13.43Q111.99-13.99 114.82-13.99L117.81-13.99L117.81-15.36Q117.81-16.24 117.56-16.95Q117.31-17.65 116.76-18.15Q116.21-18.64 115.34-18.91Q114.46-19.18 113.18-19.18Q111.16-19.18 109.19-18.72Q107.23-18.26 105.39-17.43L105.39-21.81Q107.03-22.46 109.17-22.89Q111.32-23.31 113.63-23.31Q116.17-23.31 117.99-22.83Q119.81-22.35 120.99-21.38Q122.17-20.42 122.73-18.97Q123.29-17.52 123.29-15.59L123.29 0M117.81-7.03L117.81-10.08L114.46-10.08Q113.07-10.08 112.10-9.82Q111.14-9.55 110.53-9.07Q109.92-8.60 109.64-7.98Q109.36-7.37 109.36-6.67Q109.36-5.28 110.26-4.55Q111.16-3.82 112.71-3.82Q113.85-3.82 115.09-4.65Q116.33-5.48 117.81-7.03M148.04-5.75L148.04-0.88Q146.42-0.22 144.69 0.09Q142.96 0.40 141.08 0.40Q138.36 0.40 136.20-0.34Q134.05-1.08 132.54-2.54Q131.04-4 130.24-6.15Q129.44-8.31 129.44-11.14Q129.44-13.88 130.31-16.10Q131.17-18.33 132.74-19.90Q134.32-21.47 136.53-22.33Q138.74-23.18 141.46-23.18Q143.68-23.18 145.20-22.94Q146.71-22.71 147.93-22.35L147.93-17.03Q146.54-17.72 144.91-18.10Q143.28-18.49 141.82-18.49Q140.29-18.49 139.08-17.97Q137.87-17.45 137.03-16.53Q136.20-15.61 135.77-14.30Q135.33-12.98 135.33-11.41Q135.33-9.77 135.80-8.47Q136.27-7.17 137.14-6.26Q138-5.35 139.21-4.86Q140.43-4.38 141.91-4.38Q142.63-4.38 143.42-4.48Q144.22-4.58 145.02-4.77Q145.82-4.96 146.59-5.21Q147.37-5.46 148.04-5.75M176.16 0L169 0L160.57-11.41L160.57 0L155.09 0L155.09-31.74L160.57-31.74L160.57-13.16L168.55-22.82L175.40-22.82L166.14-12.42L176.16 0M224.77 0L206.75 0L206.75-29.36L212.37-29.36L212.37-4.74L224.77-4.74L224.77 0M244.17-29.06Q244.17-28.32 243.90-27.67Q243.63-27.02 243.15-26.54Q242.67-26.05 242.02-25.77Q241.37-25.49 240.60-25.49Q239.84-25.49 239.18-25.77Q238.51-26.05 238.03-26.54Q237.55-27.02 237.28-27.67Q237.01-28.32 237.01-29.06Q237.01-29.81 237.28-30.46Q237.55-31.11 238.03-31.60Q238.51-32.10 239.18-32.38Q239.84-32.66 240.60-32.66Q241.37-32.66 242.02-32.38Q242.67-32.10 243.15-31.60Q243.63-31.11 243.90-30.46Q244.17-29.81 244.17-29.06M238.11-4.27L238.11-18.55L231.66-18.55L231.66-22.82L243.72-22.82L243.72-4.27L250.30-4.27L250.30 0L230.88 0L230.88-4.27L238.11-4.27M275.12 0L269.64 0L269.64-14.87Q269.64-18.62 266.86-18.62Q265.47-18.62 264.20-17.50Q262.93-16.37 261.51-14.44L261.51 0L256.03 0L256.03-22.82L260.77-22.82L260.91-19.45Q261.60-20.33 262.35-21.05Q263.11-21.76 263.98-22.27Q264.86-22.78 265.87-23.04Q266.88-23.31 268.14-23.31Q269.89-23.31 271.19-22.74Q272.50-22.17 273.37-21.12Q274.25-20.08 274.69-18.61Q275.12-17.14 275.12-15.32L275.12 0M302.62 0L295.45 0L287.03-11.41L287.03 0L281.55 0L281.55-31.74L287.03-31.74L287.03-13.16L295-22.82L301.85-22.82L292.60-12.42L302.62 0M326.49-13.16Q326.49-12.60 326.46-11.70Q326.42-10.80 326.36-10.02L311.35-10.02Q311.35-8.51 311.81-7.37Q312.27-6.22 313.12-5.45Q313.96-4.67 315.14-4.27Q316.32-3.86 317.75-3.86Q319.42-3.86 321.31-4.12Q323.21-4.38 325.26-4.96L325.26-0.61Q324.38-0.36 323.35-0.16Q322.31 0.04 321.24 0.20Q320.16 0.36 319.06 0.44Q317.96 0.52 316.92 0.52Q314.32 0.52 312.25-0.22Q310.19-0.97 308.75-2.41Q307.31-3.86 306.55-6Q305.78-8.13 305.78-10.94Q305.78-13.72 306.55-16Q307.31-18.28 308.70-19.91Q310.10-21.54 312.08-22.43Q314.07-23.31 316.52-23.31Q318.95-23.31 320.81-22.56Q322.67-21.81 323.93-20.46Q325.19-19.11 325.84-17.25Q326.49-15.39 326.49-13.16M311.44-13.95L320.92-13.95Q320.94-15.30 320.58-16.30Q320.23-17.29 319.61-17.95Q318.99-18.60 318.17-18.91Q317.35-19.23 316.41-19.23Q314.34-19.23 313.02-17.85Q311.69-16.46 311.44-13.95M352.10-13.95L346.59-13.95Q346.64-15.23 346.47-16.13Q346.30-17.03 345.93-17.61Q345.56-18.19 345.02-18.46Q344.48-18.73 343.79-18.73Q342.57-18.73 341.28-17.73Q339.99-16.73 338.44-14.44L338.44 0L332.83 0L332.83-22.82L337.79-22.82L337.99-19.50Q338.55-20.37 339.26-21.07Q339.97-21.76 340.83-22.27Q341.70-22.78 342.75-23.04Q343.81-23.31 345.07-23.31Q346.80-23.31 348.13-22.72Q349.47-22.12 350.38-20.96Q351.29-19.79 351.73-18.02Q352.17-16.26 352.10-13.95"/></g>
  <text x="256" y="154" font-family="'Berkeley Mono','JetBrains Mono','Cascadia Code',Consolas,ui-monospace,monospace" font-size="14" letter-spacing="0.5" fill="#879994">Archive every external link before it rots.</text>
</svg>
